<svg xmlns="http://www.w3.org/2000/svg" viewBox="0 0 60.176 60.176"><g fill="#f0c419"><path d="M6.139 23.807a1 1 0 0 0-1-1H1a1 1 0 1 0 0 2h4.139a1 1 0 0 0 1-1zM21 2.807a1 1 0 0 0-1 1v4.138a1 1 0 1 0 2 0V3.807a1 1 0 0 0-1-1zM6.535 7.927a.999.999 0 1 0-1.414 1.414l3.956 3.956a.997.997 0 0 0 1.414 0 .999.999 0 0 0 0-1.414L6.535 7.927zM36.88 7.927a.999.999 0 0 0-1.414 0l-3.956 3.956a.999.999 0 1 0 1.414 1.414l3.956-3.956a.999.999 0 0 0 0-1.414zM14.915 6.91a1 1 0 1 0-1.842.781l.809 1.905a1.001 1.001 0 0 0 1.842-.781l-.809-1.905zM28.093 6.254a1.002 1.002 0 0 0-1.302.553l-.775 1.918a1 1 0 1 0 1.854.749l.775-1.918a1 1 0 0 0-.552-1.302zM6.009 29.084l-1.904.809a1 1 0 1 0 .782 1.841l1.904-.809a1 1 0 1 0-.782-1.841zM4 18.017l1.918.775a.999.999 0 0 0 .75-1.854l-1.918-.776A1 1 0 0 0 4 18.017z"/></g><path d="M12.806 34.876c.719.079 1.418.223 2.087.439a6.983 6.983 0 0 1 1.426-5.958 7.003 7.003 0 0 1 7.523-2.224l.012.004a6.988 6.988 0 0 1 4.902-4.238 6.967 6.967 0 0 1 2.441-.129c-.007-.155-.023-.307-.023-.464 0-2.063.604-3.982 1.632-5.605C30.39 12.7 26.015 10.014 21 10.014c-7.618 0-13.793 6.175-13.793 13.793 0 4.544 2.207 8.559 5.599 11.069z" fill="#ede21b"/><path d="M60.152 29.369h-.081c.035.304.059.611.059.925a1 1 0 1 1-2 0c0-3.309-2.691-6-6-6s-6 2.691-6 6a1 1 0 1 1-2 0c0-4.064 3.049-7.423 6.978-7.927-.226-5.039-4.384-9.073-9.478-9.073-5.111 0-9.281 4.06-9.481 9.123.829.196 1.632.52 2.378.981a7.954 7.954 0 0 1 3.576 4.97 1.001 1.001 0 0 1-.744 1.203 1.005 1.005 0 0 1-1.203-.744c-.758-3.222-3.999-5.226-7.214-4.467a6.007 6.007 0 0 0-4.467 7.215 1 1 0 0 1-1.947.457 7.941 7.941 0 0 1 .012-3.674 5.974 5.974 0 0 0-5.493 2.122 5.992 5.992 0 0 0-1.175 5.285c.001.012.007.022.008.034a5.966 5.966 0 0 0 1.985 3.127.999.999 0 1 1-1.271 1.544 7.94 7.94 0 0 1-2.546-3.781 9.453 9.453 0 0 0-10.49 4.262 9.437 9.437 0 0 0-1.11 7.185 9.438 9.438 0 0 0 4.296 5.867 1 1 0 0 1-.52 1.854.993.993 0 0 1-.392-.091 11.428 11.428 0 0 0 5.344 1.593l8.209.003c5.307-.085 9.853-3.36 11.791-7.992 1.963 4.693 6.603 8 12 8 9.374 0 17-7.626 17-17v-10l-.024-1.001z" fill="#d0e8f9"/><path d="M53.108 22.435c-.231-6.139-5.284-11.066-11.478-11.066-6.142 0-11.16 4.844-11.47 10.91a8.066 8.066 0 0 0-1.676.209 7.979 7.979 0 0 0-5.229 4.052 7.946 7.946 0 0 0-7.75 2.742 7.941 7.941 0 0 0-1.81 5.359 11.452 11.452 0 0 0-11.844 5.344C.255 42.61-.222 45.699.506 48.683s2.575 5.506 5.2 7.102a.999.999 0 0 0 1.039-1.708 9.438 9.438 0 0 1-4.296-5.867 9.437 9.437 0 0 1 1.11-7.185 9.456 9.456 0 0 1 10.49-4.262 7.943 7.943 0 0 0 2.546 3.781.999.999 0 0 0 1.408-.136A1 1 0 0 0 17.866 39a5.956 5.956 0 0 1-1.985-3.127c-.001-.012-.007-.022-.008-.034a5.992 5.992 0 0 1 1.175-5.285 5.974 5.974 0 0 1 5.493-2.122 7.928 7.928 0 0 0-.012 3.674 1 1 0 0 0 1.947-.457 6.007 6.007 0 0 1 4.467-7.215c3.215-.759 6.456 1.245 7.214 4.467.127.537.665.865 1.203.744.537-.127.87-.665.744-1.203a7.954 7.954 0 0 0-3.576-4.97 7.999 7.999 0 0 0-2.378-.981c.2-5.063 4.37-9.123 9.481-9.123 5.094 0 9.253 4.033 9.478 9.073-3.929.504-6.978 3.863-6.978 7.927a1 1 0 1 0 2 0c0-3.309 2.691-6 6-6s6.046 2.691 6.046 6v3a1 1 0 0 0 2 0v-3c-.001-4.078-3.118-7.448-7.069-7.933z" fill="#abcadd"/><path d="M43.176 57.369a13.968 13.968 0 0 1-12-6.789 13.968 13.968 0 0 1-12 6.789 1 1 0 1 1 0-2c4.853 0 9.201-2.899 11.078-7.386l.922-2.206.922 2.206a11.985 11.985 0 0 0 11.078 7.386 1 1 0 1 1 0 2zM55.073 43.244c-.458-3.979-3.843-7.082-7.943-7.082-4.411 0-8 3.589-8 8a1 1 0 0 0 2 0c0-3.309 2.691-6 6-6 3.003 0 5.49 2.219 5.925 5.102-2.797.509-4.925 2.957-4.925 5.898a1 1 0 0 0 2 0c0-2.206 1.794-4 4-4s4 1.794 4 4a1 1 0 0 0 2 0c0-2.987-2.196-5.463-5.057-5.918z" fill="#abcadd"/></svg>