<svg xmlns="http://www.w3.org/2000/svg" viewBox="0 0 512 512"><circle cx="256" cy="256" r="256" fill="#c1d354"/><path d="M307.689 506.775c101.568-20.826 181.14-101.829 199.99-204.106L339.302 134.298l-9.224 9.221-30.668-30.669c-.225-.228-.497-.456-.73-.686a10.092 10.092 0 0 0-6.285-2.23h-72.832c-2.506 0-5.056 1.001-7.022 2.913a9.954 9.954 0 0 0-2.916 7.058v6.653h-3.412c-.863 0-1.728.317-2.365.952a3.365 3.365 0 0 0-.963 2.373v3.412h-6.651v1.009h-23.549l16.899 41.446 6.651 6.651v35.853l3.553 3.553h-3.553v1.001h-23.549l16.899 41.5 6.651 6.651v35.804l3.553 3.553h-3.553v.998h-23.549l16.899 41.5 6.651 6.653v35.845l111.452 111.463z" fill="#9db138"/><path d="M206.213 126.543c-.855 0-1.7.328-2.353.963a3.38 3.38 0 0 0-.975 2.353v268.879c0 .85.338 1.7.975 2.332.653.66 1.495.983 2.353.983h99.581c.842 0 1.692-.323 2.337-.983.66-.632.978-1.482.978-2.332V129.859c0-.85-.317-1.692-.978-2.353a3.34 3.34 0 0 0-2.337-.963h-99.581z" fill="#5d6d7e"/><g fill="#283a4d"><path d="M302.359 126.543h-92.718v-6.636c0-2.55.963-5.1 2.916-7.045a9.927 9.927 0 0 1 7.043-2.913h72.796c2.563 0 5.112.965 7.043 2.913a9.907 9.907 0 0 1 2.924 7.045v6.636h-.004zM309.12 133.299h6.636v84.966h-6.636zM309.12 221.824h6.636v84.966h-6.636zM309.12 310.323h6.636v84.966h-6.636z"/></g><path d="M289.193 352.812c0 18.332-14.863 33.185-33.193 33.185-18.337 0-33.19-14.853-33.19-33.185 0-18.337 14.853-33.19 33.19-33.19 18.33.002 33.193 14.852 33.193 33.19z" fill="#c1d354"/><path d="M289.193 264.294c0 18.342-14.863 33.19-33.193 33.19-18.337 0-33.19-14.848-33.19-33.19 0-18.337 14.853-33.193 33.19-33.193 18.33 0 33.193 14.859 33.193 33.193z" fill="#ff9d4d"/><path d="M289.193 175.777c0 18.342-14.863 33.203-33.193 33.203-18.337 0-33.19-14.861-33.19-33.203 0-18.327 14.853-33.19 33.19-33.19 18.33-.003 33.193 14.863 33.193 33.19z" fill="#f28124"/><g fill="#34495e"><path d="M297.492 352.812h-3.323c0-21.056-17.121-38.177-38.17-38.177s-38.172 17.121-38.172 38.177h-3.313c0-22.881 18.604-41.492 41.485-41.492s41.493 18.613 41.493 41.492zM297.492 264.294h-3.323c0-21.043-17.121-38.167-38.17-38.167s-38.172 17.121-38.172 38.167h-3.313c0-22.879 18.604-41.495 41.485-41.495 22.882 0 41.493 18.619 41.493 41.495zM297.492 175.777h-3.323c0-21.046-17.121-38.172-38.17-38.172s-38.172 17.126-38.172 38.172h-3.313c0-22.881 18.604-41.482 41.485-41.482 22.882-.003 41.493 18.601 41.493 41.482zM322.383 175.777h-6.638v-41.485h23.57zM322.383 264.294h-6.638v-41.495h23.57zM322.383 352.812h-6.638v-41.493h23.57z"/></g><g fill="#283a4d"><path d="M196.25 133.299h6.63v84.966h-6.63zM196.25 221.824h6.63v84.966h-6.63zM196.25 310.323h6.63v84.966h-6.63z"/></g><g fill="#34495e"><path d="M189.609 175.777h6.646v-41.485h-23.57zM189.609 264.294h6.646v-41.495h-23.57zM189.609 352.812h6.646v-41.493h-23.57z"/></g><ellipse transform="scale(-1) rotate(44.996 392.593 -586.337)" cx="242.859" cy="162.611" rx="9.729" ry="11.708" fill="#faad46"/><ellipse transform="rotate(-134.991 242.844 251.138)" cx="242.843" cy="251.137" rx="9.725" ry="11.709" fill="#ffcf66"/><path d="M251.118 331.364c3.799 3.807 3.167 10.586-1.405 15.155-4.564 4.572-11.356 5.204-15.155 1.398-3.799-3.791-3.174-10.583 1.403-15.147 4.574-4.581 11.358-5.198 15.157-1.406z" fill="#dbeba0"/></svg>